<svg xmlns="http://www.w3.org/2000/svg" viewBox="0 0 268.55 251.29"><defs><style>.cls-1{isolation:isolate;}</style></defs><g id="Layer_2" data-name="Layer 2"><g id="Layer_2-2" data-name="Layer 2"><path d="M268.55,48.12h0L203.73,10.69,0,128.32v74.85l60.19,34.75h0l4.63,2.67,4.63-2.67h0L268.55,123h0ZM203.73,21.39,250,48.12,64.82,155.05l-46.3-26.73ZM9.26,197.86V133.67l50.93,29.41v64.16Zm250-80.23L69.45,227.23V163.07L259.29,53.47v64.16Z"/><polygon points="137.37 154.05 137.32 134.33 147.66 128.36 147.78 171.67 126.39 164.69 126.44 183.41 116.15 189.35 116.03 147.04 137.37 154.05"/><polygon points="182.46 108.58 182.49 119.47 173.21 124.83 173.29 156.36 162.7 162.47 162.61 130.94 153.33 136.3 153.3 125.42 182.46 108.58"/><polygon points="212.42 90.97 212.45 102.17 198.68 110.12 198.69 115.69 210.5 108.87 210.52 118.43 198.72 125.25 198.74 131.45 213.26 123.06 213.29 133.26 188.22 147.74 188.11 105.01 212.42 90.97"/><polygon points="240.92 94.27 240.87 74.55 251.21 68.58 251.32 113.02 229.93 104.91 229.99 123.63 219.7 129.57 219.58 87.26 240.92 94.27"/><g class="cls-1"><polygon points="92.61 157.4 75.32 213.14 87.15 206.25 94.26 181.78 101.87 197.82 111.13 192.47 92.61 157.4"/></g><polygon points="53.84 170.1 39.54 180.31 52.86 212.27 40.88 205.35 32.7 185.31 28.77 188.04 28.72 198.33 18.53 192.47 18.53 149.7 28.71 155.56 28.82 174.56 43.66 164.19 53.84 170.1"/><polygon points="268.55 144.36 83.34 251.29 268.55 251.29 268.55 144.36"/><polygon points="0 106.93 185.21 0 0 0 0 106.93"/></g></g></svg>