<svg xmlns="http://www.w3.org/2000/svg" viewBox="0 0 129.65 160.4"><g id="Layer_2" data-name="Layer 2"><g id="Layer_2-2" data-name="Layer 2"><polygon points="129.65 128.32 74.09 160.4 129.65 160.4 129.65 128.32"/><polygon points="0 32.09 55.56 0 0 0 0 32.09"/><path d="M129.65,42.78h0L64.82,5.35,0,42.78v74.85l60.2,34.75h0l4.63,2.67,4.63-2.67h0l60.19-34.75h0ZM64.83,16.05l46.29,26.73L64.83,69.51,18.52,42.78ZM9.26,112.32V48.13L60.2,77.54v64.15Zm111.12,0L69.46,141.69V77.53l50.93-29.41v64.16Z"/><polygon points="53.84 84.56 39.54 94.77 52.86 126.72 40.88 119.81 32.7 99.77 28.77 102.5 28.72 112.79 18.53 106.93 18.53 64.16 28.71 70.01 28.82 89.02 43.66 78.64 53.84 84.56"/></g></g></svg>